{"title":"[Eac Flac Cue] Eluveitie - Slania [TNTVillage]","uid":6199842,"size":401965008,"categoryP":"audio","categoryS":"flac","magnet":"?xt=urn:btih:94f770b29007e4f6b77ecdc74e4ad76268ed8fbd&amp;dn=%5BEac+Flac+Cue%5D+Eluveitie+-+Slania+%5BTNTVillage%5D&amp;tr=udp%3A%2F%2Ftracker.openbittorrent.com%3A80&amp;tr=udp%3A%2F%2Fopen.demonii.com%3A1337&amp;tr=udp%3A%2F%2Ftracker.coppersurfer.tk%3A6969&amp;tr=udp%3A%2F%2Fexodus.desync.com%3A6969","seeders":1,"leechers":0,"uploader":"Zucca87","files":18,"time":1298576015,"description":"\nYear: 15 February 2008                              \nGenre: Folk Metal\nLabel: Nuclear Blast\nContenents: rip of album\nFont: Original cd\n\n\nTRACKLIST\n\n1.Samon \n1.Primordial Breath \n3.Inis Mona\n4.Gray Sublime Archon \n5.Anagantios \n6.Bloodstained Ground \n7.The Somber Lay \n8.Slania's Song \n9.Giamonios \n10.Tarvos \n11.Calling The Rain\n12.Elembivos\n13.Samon (Acoustic Version)\n\n\n\nLOG OF THE RIP\n\nExact Audio Copy V1.0 beta 1 from 15. November 2010\n\nEAC extraction logfile from 18. February 2011, 16:28\n\nEluveitie / Slania\n\nUsed drive  : HL-DT-STDVD-RAM GSA-H58N   Adapter: 4  ID: 0\n\nRead mode               : Secure\nUtilize accurate stream : Yes\nDefeat audio cache      : No\nMake use of C2 pointers : No\n\nRead offset correction                      : 102\nOverread into Lead-In and Lead-Out          : No\nFill up missing offset samples with silence : Yes\nDelete leading and trailing silent blocks   : No\nNull samples used in CRC calculations       : Yes\nUsed interface                              : Installed external ASPI interface\nGap handling                                : Appended to previous track\n\nUsed output format              : User Defined Encoder\nSelected bitrate                : 768 kBit/s\nQuality                         : High\nAdd ID3 tag                     : Yes\nCommand line compressor         : C:\\Program Files (x86)\\Exact Audio Copy\\flac.exe\nAdditional command line options : -8 -V -T &quot;artist=%a&quot; -T &quot;title=%t&quot; -T &quot;album=%g&quot; -T &quot;date=%y&quot; -T &quot;tracknumber=%n&quot; -T &quot;genre=%m&quot; %s\n\n\nTOC of the extracted CD\n\n     Track |   Start  |  Length  | Start sector | End sector \n    ---------------------------------------------------------\n        1  |  0:00.00 |  1:49.33 |         0    |     8207   \n        2  |  1:49.33 |  4:19.03 |      8208    |    27635   \n        3  |  6:08.36 |  4:09.18 |     27636    |    46328   \n        4  | 10:17.54 |  4:21.28 |     46329    |    65931   \n        5  | 14:39.07 |  3:25.70 |     65932    |    81376   \n        6  | 18:05.02 |  3:20.51 |     81377    |    96427   \n        7  | 21:25.53 |  4:00.41 |     96428    |   114468   \n        8  | 25:26.19 |  5:40.60 |    114469    |   140028   \n        9  | 31:07.04 |  1:23.24 |    140029    |   146277   \n       10  | 32:30.28 |  4:38.74 |    146278    |   167201   \n       11  | 37:09.27 |  5:06.13 |    167202    |   190164   \n       12  | 42:15.40 |  6:28.00 |    190165    |   219264   \n       13  | 48:43.40 |  1:26.43 |    219265    |   225757   \n\n\nTrack  1\n\n     Filename C:\\Users\\Zucca\\01. Samon.wav\n\n     Pre-gap length  0:00:02.00\n\n     Peak level 100.0 %\n     Extraction speed 1.9 X\n     Track quality 99.7 %\n     Test CRC 4666E83C\n     Copy CRC 4666E83C\n     Accurately ripped (confidence 5)  [5D54A4BC]\n     Copy OK\n\nTrack  2\n\n     Filename C:\\Users\\Zucca\\02. Primordial Breath.wav\n\n     Peak level 100.0 %\n     Extraction speed 2.5 X\n     Track quality 99.8 %\n     Test CRC 00A80004\n     Copy CRC 00A80004\n     Accurately ripped (confidence 5)  [44CD5E9E]\n     Copy OK\n\nTrack  3\n\n     Filename C:\\Users\\Zucca\\03. Inis Mona.wav\n\n     Peak level 100.0 %\n     Extraction speed 3.1 X\n     Track quality 100.0 %\n     Test CRC 4A0EBED0\n     Copy CRC 4A0EBED0\n     Accurately ripped (confidence 5)  [601743FD]\n     Copy OK\n\nTrack  4\n\n     Filename C:\\Users\\Zucca\\04. Gray Sublime Archon.wav\n\n     Peak level 100.0 %\n     Extraction speed 3.4 X\n     Track quality 100.0 %\n     Test CRC DF761E40\n     Copy CRC DF761E40\n     Accurately ripped (confidence 5)  [A30A1621]\n     Copy OK\n\nTrack  5\n\n     Filename C:\\Users\\Zucca\\05. Anagantios.wav\n\n     Peak level 98.0 %\n     Extraction speed 3.6 X\n     Track quality 100.0 %\n     Test CRC 93189D31\n     Copy CRC 93189D31\n     Accurately ripped (confidence 5)  [BB24F57E]\n     Copy OK\n\nTrack  6\n\n     Filename C:\\Users\\Zucca\\06. Bloodstained Ground.wav\n\n     Peak level 100.0 %\n     Extraction speed 3.7 X\n     Track quality 100.0 %\n     Test CRC 17032B51\n     Copy CRC 17032B51\n     Accurately ripped (confidence 5)  [1B4B9E38]\n     Copy OK\n\nTrack  7\n\n     Filename C:\\Users\\Zucca\\07. The Somber Lay.wav\n\n     Pre-gap length  0:00:00.04\n\n     Peak level 100.0 %\n     Extraction speed 3.9 X\n     Track quality 100.0 %\n     Test CRC 5A19E7B2\n     Copy CRC 5A19E7B2\n     Accurately ripped (confidence 5)  [3A290F84]\n     Copy OK\n\nTrack  8\n\n     Filename C:\\Users\\Zucca\\08. Slania's Song.wav\n\n     Peak level 100.0 %\n     Extraction speed 4.2 X\n     Track quality 100.0 %\n     Test CRC 2121362C\n     Copy CRC 2121362C\n     Accurately ripped (confidence 5)  [801F4FC8]\n     Copy OK\n\nTrack  9\n\n     Filename C:\\Users\\Zucca\\09. Giamonios.wav\n\n     Peak level 97.8 %\n     Extraction speed 3.9 X\n     Track quality 100.0 %\n     Test CRC CBB87635\n     Copy CRC CBB87635\n     Accurately ripped (confidence 5)  [49631232]\n     Copy OK\n\nTrack 10\n\n     Filename C:\\Users\\Zucca\\10. Tarvos.wav\n\n     Peak level 100.0 %\n     Extraction speed 4.5 X\n     Track quality 100.0 %\n     Test CRC BA50A126\n     Copy CRC BA50A126\n     Accurately ripped (confidence 5)  [319E8849]\n     Copy OK\n\nTrack 11\n\n     Filename C:\\Users\\Zucca\\11. Calling the Rain.wav\n\n     Peak level 100.0 %\n     Extraction speed 4.6 X\n     Track quality 99.9 %\n     Test CRC 6BD55D27\n     Copy CRC 6BD55D27\n     Accurately ripped (confidence 5)  [A5FF765F]\n     Copy OK\n\nTrack 12\n\n     Filename C:\\Users\\Zucca\\12. Elembivos.wav\n\n     Peak level 100.0 %\n     Extraction speed 5.0 X\n     Track quality 100.0 %\n     Test CRC 3C7C54B6\n     Copy CRC 3C7C54B6\n     Accurately ripped (confidence 5)  [B64E7D6B]\n     Copy OK\n\nTrack 13\n\n     Filename C:\\Users\\Zucca\\13. Samon (Acoustic Version).wav\n\n     Pre-gap length  0:00:00.06\n\n     Peak level 90.1 %\n     Extraction speed 4.9 X\n     Track quality 100.0 %\n     Test CRC 224B865D\n     Copy CRC 224B865D\n     Accurately ripped (confidence 5)  [CBB64423]\n     Copy OK\n\n\nAll tracks accurately ripped\n\nNo errors occurred\n\nEnd of status report","torrent":{"xt":"urn:btih:94f770b29007e4f6b77ecdc74e4ad76268ed8fbd","amp;dn":"%5BEac+Flac+Cue%5D+Eluveitie+-+Slania+%5BTNTVillage%5D","amp;tr":["udp%3A%2F%2Ftracker.openbittorrent.com%3A80","udp%3A%2F%2Fopen.demonii.com%3A1337","udp%3A%2F%2Ftracker.coppersurfer.tk%3A6969","udp%3A%2F%2Fexodus.desync.com%3A6969"],"infoHash":"94f770b29007e4f6b77ecdc74e4ad76268ed8fbd","infoHashBuffer":{"type":"Buffer","data":[148,247,112,178,144,7,228,246,183,126,205,199,78,74,215,98,104,237,143,189]},"announce":[],"urlList":[]}}